<svg xmlns="http://www.w3.org/2000/svg" xmlns:xlink="http://www.w3.org/1999/xlink" width="60" zoomAndPan="magnify" viewBox="0 0 45 44.999999" height="60" preserveAspectRatio="xMidYMid meet" version="1.0"><defs><g/><clipPath id="id1"><path d="M 5.023438 5.023438 L 40.273438 5.023438 L 40.273438 40.273438 L 5.023438 40.273438 Z M 5.023438 5.023438 " clip-rule="nonzero"/></clipPath></defs><g clip-path="url(#id1)"><path fill="white" d="M 22.648438 40.273438 C 12.929688 40.273438 5.023438 32.367188 5.023438 22.648438 C 5.023438 12.929688 12.929688 5.023438 22.648438 5.023438 C 32.367188 5.023438 40.273438 12.929688 40.273438 22.648438 C 40.273438 32.367188 32.367188 40.273438 22.648438 40.273438 Z M 22.648438 5.335938 C 13.101562 5.335938 5.335938 13.101562 5.335938 22.648438 C 5.335938 32.195312 13.101562 39.960938 22.648438 39.960938 C 32.191406 39.960938 39.960938 32.195312 39.960938 22.648438 C 39.960938 13.101562 32.191406 5.335938 22.648438 5.335938 Z M 22.648438 5.335938 " fill-opacity="1" fill-rule="nonzero"/></g><g fill="white" fill-opacity="1"><g transform="translate(28.622547, 14.335636)"><g><path d="M -6.328125 1 L -10.765625 7.671875 C -10.835938 7.773438 -10.910156 7.847656 -10.984375 7.890625 C -11.054688 7.941406 -11.128906 7.96875 -11.203125 7.96875 C -11.285156 7.96875 -11.359375 7.929688 -11.421875 7.859375 C -11.484375 7.785156 -11.515625 7.691406 -11.515625 7.578125 L -11.515625 0.5 C -11.515625 0.363281 -11.5 0.242188 -11.46875 0.140625 C -11.4375 0.046875 -11.347656 0 -11.203125 0 C -11.085938 0 -11.007812 0.046875 -10.96875 0.140625 C -10.925781 0.242188 -10.90625 0.363281 -10.90625 0.5 L -10.90625 6.859375 L -6.671875 0.609375 C -6.554688 0.453125 -6.441406 0.375 -6.328125 0.375 C -6.203125 0.375 -6.082031 0.453125 -5.96875 0.609375 L -1.75 6.859375 L -1.75 0.5 C -1.75 0.363281 -1.726562 0.242188 -1.6875 0.140625 C -1.644531 0.046875 -1.566406 0 -1.453125 0 C -1.304688 0 -1.21875 0.046875 -1.1875 0.140625 C -1.15625 0.242188 -1.140625 0.363281 -1.140625 0.5 L -1.140625 7.578125 C -1.140625 7.691406 -1.164062 7.785156 -1.21875 7.859375 C -1.28125 7.929688 -1.359375 7.96875 -1.453125 7.96875 C -1.515625 7.96875 -1.582031 7.941406 -1.65625 7.890625 C -1.738281 7.847656 -1.816406 7.773438 -1.890625 7.671875 Z M -6.328125 1 "/></g></g></g><g fill="rgb(0%, 76.078796%, 79.60968%)" fill-opacity="1"><g transform="translate(15.967806, 29.78104)"><g><path d="M 6.328125 -1 L 10.765625 -7.671875 C 10.835938 -7.773438 10.910156 -7.847656 10.984375 -7.890625 C 11.054688 -7.941406 11.128906 -7.96875 11.203125 -7.96875 C 11.285156 -7.96875 11.359375 -7.929688 11.421875 -7.859375 C 11.484375 -7.785156 11.515625 -7.691406 11.515625 -7.578125 L 11.515625 -0.5 C 11.515625 -0.363281 11.5 -0.242188 11.46875 -0.140625 C 11.4375 -0.046875 11.347656 0 11.203125 0 C 11.085938 0 11.007812 -0.046875 10.96875 -0.140625 C 10.925781 -0.242188 10.90625 -0.363281 10.90625 -0.5 L 10.90625 -6.859375 L 6.671875 -0.609375 C 6.554688 -0.453125 6.441406 -0.375 6.328125 -0.375 C 6.203125 -0.375 6.082031 -0.453125 5.96875 -0.609375 L 1.75 -6.859375 L 1.75 -0.5 C 1.75 -0.363281 1.726562 -0.242188 1.6875 -0.140625 C 1.644531 -0.046875 1.566406 0 1.453125 0 C 1.304688 0 1.21875 -0.046875 1.1875 -0.140625 C 1.15625 -0.242188 1.140625 -0.363281 1.140625 -0.5 L 1.140625 -7.578125 C 1.140625 -7.691406 1.164062 -7.785156 1.21875 -7.859375 C 1.28125 -7.929688 1.359375 -7.96875 1.453125 -7.96875 C 1.515625 -7.96875 1.582031 -7.941406 1.65625 -7.890625 C 1.738281 -7.847656 1.816406 -7.773438 1.890625 -7.671875 Z M 6.328125 -1 "/></g></g></g></svg>