<svg width="47" height="40" viewBox="0 0 47 40" fill="none" xmlns="http://www.w3.org/2000/svg">
<path d="M23.5063 0C10.2911 0 0.0126572 9.03226 0.0126572 20.6452C0.0126572 34.1935 13.962 40 16.1646 40C17.6329 40 17.6329 39.3548 17.6329 38.7097V35.4839C12.4937 36.7742 10.2911 34.1935 9.55696 32.2581C9.55696 32.2581 9.55696 31.6129 8.08861 30.3226C7.35443 29.6774 4.41772 28.3871 7.35443 28.3871C9.55696 28.3871 11.0253 30.9677 11.0253 30.9677C13.2278 33.5484 16.1646 32.9032 17.6329 32.2581C17.6329 30.9677 19.1013 29.6774 19.1013 29.6774C13.2278 29.0323 8.82278 27.0968 8.82278 20C8.82278 17.4194 9.55696 15.4839 11.0253 14.1935C11.0253 14.1935 9.55696 11.6129 11.0253 8.3871C11.0253 8.3871 14.6962 8.3871 17.6329 10.9677C19.8354 9.67742 27.1772 9.67742 29.3797 10.9677C32.3165 8.3871 35.9873 8.3871 35.9873 8.3871C37.4557 12.9032 35.9873 14.1935 35.9873 14.1935C37.4557 15.4839 38.1899 17.4194 38.1899 20C38.1899 27.0968 33.0506 29.0323 27.9114 29.6774C28.6456 30.3226 29.3797 31.6129 29.3797 33.5484V38.7097C29.3797 39.3548 29.3797 40 30.8481 40C33.0506 40 47 34.1935 47 20.6452C47 9.03226 36.7215 0 23.5063 0Z" fill="white"/>
</svg>
